<?xml version="1.0" standalone="yes"?>
<svg xmlns="http://www.w3.org/2000/svg" width="47" height="47">
<path style="fill:#f8faf8; stroke:none;" d="M0 0L0 47L47 47L47 0L0 0z"/>
<path style="fill:#c9b14e; stroke:none;" d="M10 2L10 3L37 3L10 2z"/>
<path style="fill:#3e5860; stroke:none;" d="M10 3L10 8L6 8L6 9L9 9L4 17C15.1924 14.9295 31.8026 14.9224 43 17L40 9L40 8L36 8L37 3L10 3z"/>
<path style="fill:#4d6f96; stroke:none;" d="M6 7L6 8L10 8L6 7M36 7L36 8L40 8L40 9L38 9L38 10L41 9L36 7z"/>
<path style="fill:#c9b14e; stroke:none;" d="M40 7L41 8L40 7z"/>
<path style="fill:#4d6f96; stroke:none;" d="M6 9L6 10L9 10L6 9z"/>
<path style="fill:#c9b14e; stroke:none;" d="M40 9L41 10L40 9z"/>
<path style="fill:#4d6f96; stroke:none;" d="M7 11L8 12L7 11M39 11L40 12L39 11M6 12L7 13L6 12z"/>
<path style="fill:#c9b14e; stroke:none;" d="M40 12L41 13L40 12M5 13L6 14L5 13M41 13L42 14L41 13z"/>
<path style="fill:#4d6f96; stroke:none;" d="M3 16L4 17L3 16M6 16L6 17L9 17L6 16z"/>
<path style="fill:#5fbe2d; stroke:none;" d="M7 17L11 44L35 44L39 16L7 17z"/>
<path style="fill:#4d6f96; stroke:none;" d="M32 16L33 17L32 16M39.6667 16.3333L40.3333 16.6667L39.6667 16.3333M43 16L44 17L43 16M17 17L18 18L17 17M30 17L31 18L30 17z"/>
<path style="fill:#c9b14e; stroke:none;" d="M38.3333 17.6667L38.6667 18.3333L38.3333 17.6667M7 20L8 21L7 20M26 31L30 27C23.1523 21.7942 17.4474 27.4399 26 31M37.3333 25.6667L37.6667 26.3333L37.3333 25.6667M8.33333 27.6667L8.66667 28.3333L8.33333 27.6667z"/>
<path style="fill:#f8faf8; stroke:none;" d="M16.8356 28.0278C14.5622 30.0139 18.1559 32.7269 20.1644 30.9722C22.4378 28.9861 18.8441 26.2731 16.8356 28.0278M27.3819 28.071C25.0804 29.6071 27.2111 32.7838 29.5671 31.5972C32.3463 30.1976 30.0011 26.3229 27.3819 28.071z"/>
<path style="fill:#c9b14e; stroke:none;" d="M31 28L32 29L31 28M31 30L32 31L31 30M17 32L17 33L20 33L17 32M27 32L28 33L27 32M29.6667 32.3333L30.3333 32.6667L29.6667 32.3333M36 32L36 35L37 35L36 32M9.33333 35.6667L9.66667 36.3333L9.33333 35.6667M10 41L10 44L11 44L10 41M35.3333 41.6667L35.6667 42.3333L35.3333 41.6667M12 44L13 45L12 44M14 44L15 45L14 44M16 44L17 45L16 44M18 44L19 45L18 44M20 44L21 45L20 44M22 44L22 45L35 45L22 44z"/>
</svg>
