<?xml version="1.0" standalone="yes"?>
<svg xmlns="http://www.w3.org/2000/svg" width="47" height="47">
<path style="fill:#fcfcfb; stroke:none;" d="M0 0L0 47L47 47L47 0L0 0z"/>
<path style="fill:#c2aa87; stroke:none;" d="M23 2L24 3L23 2M21 3L22 4L21 3z"/>
<path style="fill:#637f8f; stroke:none;" d="M2 18L23 8.20139L45 17C41.0513 12.3383 37.2163 10.6612 37 4L33 4L33 8C22.5081 2.18894 7.98847 6.28669 2 18z"/>
<path style="fill:#c2aa87; stroke:none;" d="M25 3L26 4L25 3M33 3L33 4L37 4L33 3M37 4L37 11L38 11L37 4M18 5L19 6L18 5M28 5L29 6L28 5M16 6L17 7L16 6z"/>
<path style="fill:#63964d; stroke:none;" d="M5 42L10 42L9 25L20 25L20 42L24 42C24 27.4142 25.7775 23 41 23C40.7691 16.0364 30.2455 7.31164 23 7.69367C18.3662 7.93799 10.5415 13.5594 7.3179 16.7608C2.36623 21.6785 5 35.4563 5 42z"/>
<path style="fill:#c2aa87; stroke:none;" d="M31 7L32 8L31 7M13 8L14 9L13 8M11 9L12 10L11 9M10 10L11 11L10 10M8 11L9 12L8 11M38 11L39 12L38 11M21 12L20 14L21 12z"/>
<path style="fill:#cf9754; stroke:none;" d="M22.2785 13.0856C19.2841 14.914 21.0893 20.2413 24.5818 18.5926C27.988 16.9846 25.9191 10.8628 22.2785 13.0856z"/>
<path style="fill:#c2aa87; stroke:none;" d="M39 12L40 13L39 12M5 13L6 14L5 13M26 13L27 14L26 13M41 13L42 14L41 13M3 14L4 15L3 14M2 15L3 16L2 15M19.3333 15.6667L19.6667 16.3333L19.3333 15.6667M44 15L45 16L44 15M26 17L27 18L26 17M44 17L45 18L44 17M3.66667 18.3333L4.33333 18.6667L3.66667 18.3333M41 18L41 19L44 19L41 18M22 19L23 20L22 19M24 19L25 20L24 19z"/>
<path style="fill:#cf9754; stroke:none;" d="M27 23L26 24L25 26L28 30L28 27L31 27L32 28L31 34C36.6674 34.6342 37.2403 32.1532 37 27L38 27L39 29L41 31C45.5832 31 41.0769 40.1911 39 42L40 39L35 39L35 40L38 40L24 45L45 45L41.6026 24.2253L27 23z"/>
<path style="fill:#637f8f; stroke:none;" d="M28 23L29 24L28 23M30 23L31 24L30 23M38 23L39 24L38 23M41 23L42 24L41 23M27 24L28 25L27 24M37 24L38 27L39 27L37 24M9 25L9 41L20 42L20 25L9 25z"/>
<path style="fill:#c2aa87; stroke:none;" d="M25 25L26 26L25 25z"/>
<path style="fill:#637f8f; stroke:none;" d="M26 25L27 26L26 25M29 25L30 26L29 25M31 25L32 26L31 25M40.3333 25.6667L40.6667 26.3333L40.3333 25.6667z"/>
<path style="fill:#c2aa87; stroke:none;" d="M43 25L44 26L43 25z"/>
<path style="fill:#637f8f; stroke:none;" d="M27 26L28 27L27 26M42 26L43 27L42 26z"/>
<path style="fill:#c2aa87; stroke:none;" d="M24 27L24 44L25 44L38 40L35 40L35 39L40 39L39 42L42 41L41 31L38 27L37 27C37.0543 32.0658 36.3846 33.96 31 34L32 28L31 27L28 27L27 28L28 30L24 27M26 27L27 28L26 27M41 27L43 29L43 27L41 27M44 27L44 44L45 44L44 27z"/>
<path style="fill:#cf9754; stroke:none;" d="M29 29L30 30L29 29z"/>
<path style="fill:#c2aa87; stroke:none;" d="M34 29L33 33L36 30L34 29z"/>
<path style="fill:#cf9754; stroke:none;" d="M24 30L25 31L24 30M34 30L35 31L34 30M38 30L40 32L38 30M27 31L26 33L27 31M30 31L28 35L29 35L30 31M24 32L25 33L24 32M41 32L40 34L41 32z"/>
<path style="fill:#fcfcfb; stroke:none;" d="M16.6667 33.3333L17.3333 33.6667L16.6667 33.3333z"/>
<path style="fill:#c2aa87; stroke:none;" d="M35 33L36 34L35 33z"/>
<path style="fill:#cf9754; stroke:none;" d="M25 34L27 36L25 34M38 34L41 36L41 35L38 34M31 35L32 36L31 35M24 36L25 37L24 36M29 36L28 37L28 38L29 39L30 39L31 38L31 37L29 36M34 36L31 40L34 40L34 36M36 36L38 38L36 36M26 37L28 41L26 37z"/>
<path style="fill:#c2aa87; stroke:none;" d="M29 37L30 38L29 37M42 38L43 39L42 38z"/>
<path style="fill:#cf9754; stroke:none;" d="M24 40L25 41L24 40z"/>
<path style="fill:#c2aa87; stroke:none;" d="M10 42L10 43L19 43L10 42M38 42L39 43L38 42M42 42L43 43L42 42M29 44L30 45L29 44z"/>
</svg>
