<?xml version="1.0" standalone="yes"?>
<svg xmlns="http://www.w3.org/2000/svg" width="47" height="47">
<path style="fill:#fdfefc; stroke:none;" d="M0 0L0 47L47 47L47 0L0 0z"/>
<path style="fill:#435755; stroke:none;" d="M33 14L45 2C39.2991 3.60014 34.6001 8.29915 33 14z"/>
<path style="fill:#60be2c; stroke:none;" d="M41 8C38.1052 10.1111 36.3646 14.7995 33.5123 16.3387C31.3236 17.52 28.383 15.3352 29.9707 12.9977C31.8744 10.1948 35.8176 8.87597 38 6C24.3304 0.842995 19.4828 7.49763 10 17C6.59348 20.4135 0.696842 24.6674 3.76157 30C6.22561 34.2874 14.6246 44.1327 20 44.1327C24.3371 44.1327 28.2392 38.7562 31 36C41.1514 25.8655 44.9685 22.0888 41 8z"/>
<path style="fill:#ddba54; stroke:none;" d="M29 3L30 4L29 3M22 4L23 5L22 4M33 4L34 5L33 4M44 4L45 5L44 4M21 5L22 6L21 5M37 5L38 6L37 5M43 5L44 6L43 5M20 6L21 7L20 6M42 6L43 7L42 6M19 7L20 8L19 7M41 7L42 8L41 7M18 8L19 9L18 8M17 9L18 10L17 9M41 9L42 10L41 9M16 10L17 11L16 10M15 11L16 12L15 11z"/>
<path style="fill:#fdfefc; stroke:none;" d="M36 14L33 11C26.5849 13.1373 31.8996 20.2253 36 14z"/>
<path style="fill:#ddba54; stroke:none;" d="M14 12L15 13L14 12M32 12L33 13L32 12M13 13L14 14L13 13M42 13L43 14L42 13M12 14L13 15L12 14M28 14L29 15L28 14M11 15L12 16L11 15M10 16L11 17L10 16M18 25L11 26C15.7318 29.5796 26.7175 25.041 22.9182 18.3187C19.1039 11.5698 16.2843 20.8657 18 25M29 16L30 17L29 16M9 17L10 18L9 17M33 17L34 18L33 17M43 17L44 18L43 17M8 18L9 19L8 18M7 19L8 20L7 19z"/>
<path style="fill:#60be2c; stroke:none;" d="M19.6667 19.3333L20.3333 19.6667L19.6667 19.3333z"/>
<path style="fill:#ddba54; stroke:none;" d="M6 20L7 21L6 20M5 21L6 22L5 21M4 22L5 23L4 22M3 23L4 24L3 23M2 24L3 25L2 24z"/>
<path style="fill:#e99425; stroke:none;" d="M20 27L30 24L20 27z"/>
<path style="fill:#ddba54; stroke:none;" d="M27 26L28 27L27 26M2 28L3 29L2 28z"/>
<path style="fill:#e99425; stroke:none;" d="M21.0903 29.1759C17.4069 29.7019 18.2839 35.4177 21.9097 34.963C25.572 34.5036 24.7871 28.6481 21.0903 29.1759z"/>
<path style="fill:#60be2c; stroke:none;" d="M20 33L23 31L20 33z"/>
<path style="fill:#ddba54; stroke:none;" d="M20 35L21 36L20 35M18 44L19 45L18 44M21 44L22 45L21 44z"/>
</svg>
